{
    "asset" : {
        "generator" : "Khronos glTF Blender I/O v1.6.16",
        "version" : "2.0"
    },
    "extensionsUsed" : [
        "KHR_lights_punctual"
    ],
    "extensionsRequired" : [
        "KHR_lights_punctual"
    ],
    "extensions" : {
        "KHR_lights_punctual" : {
            "lights" : [
                {
                    "color" : [
                        1,
                        1,
                        1
                    ],
                    "intensity" : 2000,
                    "spot" : {
                        "innerConeAngle" : 0.3337942263919169,
                        "outerConeAngle" : 0.39269909262657166
                    },
                    "type" : "spot",
                    "name" : "Punto"
                },
                {
                    "color" : [
                        1,
                        1,
                        1
                    ],
                    "intensity" : 2000,
                    "spot" : {
                        "innerConeAngle" : 0.3337942263919169,
                        "outerConeAngle" : 0.39269909262657166
                    },
                    "type" : "spot",
                    "name" : "Punto.001"
                },
                {
                    "color" : [
                        1,
                        1,
                        1
                    ],
                    "intensity" : 2000,
                    "spot" : {
                        "innerConeAngle" : 0.3337942263919169,
                        "outerConeAngle" : 0.39269909262657166
                    },
                    "type" : "spot",
                    "name" : "Punto.002"
                },
                {
                    "color" : [
                        1,
                        1,
                        1
                    ],
                    "intensity" : 2000,
                    "spot" : {
                        "innerConeAngle" : 0.3337942263919169,
                        "outerConeAngle" : 0.39269909262657166
                    },
                    "type" : "spot",
                    "name" : "Punto.003"
                }
            ]
        }
    },
    "scene" : 0,
    "scenes" : [
        {
            "extras" : {
                "glTF2ExportSettings" : {
                    "export_animations" : 1,
                    "export_apply" : 1,
                    "export_draco_mesh_compression_enable" : 0,
                    "export_extras" : 1,
                    "export_format" : "GLTF_EMBEDDED",
                    "export_lights" : 1,
                    "export_materials" : "EXPORT",
                    "export_morph" : 1,
                    "export_morph_tangent" : 1,
                    "export_normals" : 1,
                    "export_skins" : 1,
                    "export_tangents" : 0,
                    "use_mesh_edges" : 1,
                    "use_mesh_vertices" : 0,
                    "use_renderable" : 1,
                    "use_selection" : 0,
                    "use_visible" : 0
                }
            },
            "name" : "Scene",
            "nodes" : [
                6,
                8,
                10,
                12,
                14
            ]
        }
    ],
    "nodes" : [
        {
            "name" : "Ball.obj.cleaner.materialmerger.gles.001",
            "rotation" : [
                -0.0007872498244978487,
                0.707106351852417,
                0.707106351852417,
                0.0007872498244978487
            ],
            "scale" : [
                0.6262722015380859,
                0.6262721419334412,
                0.6262722015380859
            ]
        },
        {
            "mesh" : 0,
            "name" : "Object_3.001",
            "rotation" : [
                -0.01938554272055626,
                0.7068409323692322,
                0.7068410515785217,
                0.01938554085791111
            ],
            "scale" : [
                0.6262721419334412,
                0.6262722015380859,
                0.6262723803520203
            ]
        },
        {
            "name" : "Sketchfab_model.001",
            "rotation" : [
                -0.0007872498244978487,
                0.707106351852417,
                0.707106351852417,
                0.0007872497662901878
            ],
            "scale" : [
                0.6262722015380859,
                0.6262722015380859,
                0.6262722611427307
            ]
        },
        {
            "mesh" : 1,
            "name" : "Texto.002",
            "rotation" : [
                0.013004787266254425,
                0.7069871425628662,
                -0.7069873213768005,
                0.013004780746996403
            ],
            "scale" : [
                0.10478752851486206,
                0.7133809328079224,
                0.5717440247535706
            ],
            "translation" : [
                0.025959499180316925,
                -0.0002348257548874244,
                -0.6917944550514221
            ]
        },
        {
            "mesh" : 2,
            "name" : "Texto.003",
            "rotation" : [
                0.7071068286895752,
                0,
                0,
                0.7071068286895752
            ],
            "scale" : [
                0.10478751361370087,
                0.7133808732032776,
                0.5717440247535706
            ],
            "translation" : [
                -0.0004351227544248104,
                -0.0002348257548874244,
                0.7004212141036987
            ]
        },
        {
            "name" : "Vac\u00edo.003",
            "rotation" : [
                0,
                0.9996241331100464,
                0,
                0.02741529420018196
            ]
        },
        {
            "children" : [
                0,
                1,
                2,
                3,
                4,
                5
            ],
            "name" : "Vac\u00edo.002",
            "rotation" : [
                0,
                0.9999994039535522,
                0,
                -0.0011133390944451094
            ],
            "scale" : [
                1.5967499017715454,
                1.5967499017715454,
                1.5967499017715454
            ]
        },
        {
            "extensions" : {
                "KHR_lights_punctual" : {
                    "light" : 0
                }
            },
            "name" : "Punto_Orientation",
            "rotation" : [
                -0.7071067690849304,
                0,
                0,
                0.7071067690849304
            ]
        },
        {
            "children" : [
                7
            ],
            "name" : "Punto",
            "rotation" : [
                -0.2179761379957199,
                0.3230779767036438,
                0.5118465423583984,
                -0.7655850052833557
            ],
            "translation" : [
                6.026883602142334,
                3.419555902481079,
                6.797914028167725
            ]
        },
        {
            "extensions" : {
                "KHR_lights_punctual" : {
                    "light" : 1
                }
            },
            "name" : "Punto.001_Orientation",
            "rotation" : [
                -0.7071067690849304,
                0,
                0,
                0.7071067690849304
            ]
        },
        {
            "children" : [
                9
            ],
            "name" : "Punto.001",
            "rotation" : [
                -0.5160624980926514,
                0.7698009014129639,
                0.20779770612716675,
                -0.312899649143219
            ],
            "translation" : [
                -6.434741020202637,
                3.419555902481079,
                6.797914028167725
            ]
        },
        {
            "extensions" : {
                "KHR_lights_punctual" : {
                    "light" : 2
                }
            },
            "name" : "Punto.002_Orientation",
            "rotation" : [
                -0.7071067690849304,
                0,
                0,
                0.7071067690849304
            ]
        },
        {
            "children" : [
                11
            ],
            "name" : "Punto.002",
            "rotation" : [
                0.5118465423583984,
                -0.7655850648880005,
                0.21797604858875275,
                -0.32307785749435425
            ],
            "translation" : [
                -6.003967761993408,
                3.419555902481079,
                -6.576870918273926
            ]
        },
        {
            "extensions" : {
                "KHR_lights_punctual" : {
                    "light" : 3
                }
            },
            "name" : "Punto.003_Orientation",
            "rotation" : [
                -0.7071067690849304,
                0,
                0,
                0.7071067690849304
            ]
        },
        {
            "children" : [
                13
            ],
            "name" : "Punto.003",
            "rotation" : [
                0.2077977955341339,
                -0.31289976835250854,
                0.5160624980926514,
                -0.7698009610176086
            ],
            "translation" : [
                6.457655906677246,
                3.419555902481079,
                -6.576871871948242
            ]
        }
    ],
    "materials" : [
        {
            "doubleSided" : true,
            "name" : "Material.017",
            "pbrMetallicRoughness" : {
                "baseColorFactor" : [
                    0.0035294501576572657,
                    0.0035294501576572657,
                    0.0035294501576572657,
                    1
                ],
                "metallicFactor" : 0.26363638043403625,
                "roughnessFactor" : 0.45454543828964233
            }
        },
        {
            "doubleSided" : true,
            "name" : "Material.018",
            "pbrMetallicRoughness" : {
                "baseColorFactor" : [
                    0.027707794681191444,
                    0.014593012630939484,
                    0.06880591064691544,
                    1
                ],
                "metallicFactor" : 0.37272730469703674,
                "roughnessFactor" : 0.23181819915771484
            }
        },
        {
            "doubleSided" : true,
            "emissiveFactor" : [
                0.6922469288110733,
                0.4343363270163536,
                0.7416314631700516
            ],
            "name" : "Material.019",
            "pbrMetallicRoughness" : {
                "baseColorFactor" : [
                    0.12977835536003113,
                    0.06644017994403839,
                    0.18614687025547028,
                    1
                ],
                "metallicFactor" : 0.26363635063171387,
                "roughnessFactor" : 0.5045454502105713
            }
        },
        {
            "doubleSided" : true,
            "name" : "Material.020",
            "pbrMetallicRoughness" : {
                "baseColorFactor" : [
                    1,
                    0.7784410715103149,
                    0.536282479763031,
                    1
                ],
                "metallicFactor" : 0.9318181872367859,
                "roughnessFactor" : 0.1454545259475708
            }
        },
        {
            "doubleSided" : true,
            "name" : "Material.021",
            "pbrMetallicRoughness" : {
                "baseColorFactor" : [
                    1,
                    0.6916181445121765,
                    0.41538339853286743,
                    1
                ],
                "metallicFactor" : 0.9318181872367859,
                "roughnessFactor" : 0.10454543679952621
            }
        }
    ],
    "meshes" : [
        {
            "name" : "Object_1.004",
            "primitives" : [
                {
                    "attributes" : {
                        "POSITION" : 0,
                        "NORMAL" : 1,
                        "TEXCOORD_0" : 2
                    },
                    "indices" : 3,
                    "material" : 0
                },
                {
                    "attributes" : {
                        "POSITION" : 4,
                        "NORMAL" : 5,
                        "TEXCOORD_0" : 6
                    },
                    "indices" : 7,
                    "material" : 1
                },
                {
                    "attributes" : {
                        "POSITION" : 8,
                        "NORMAL" : 9,
                        "TEXCOORD_0" : 10
                    },
                    "indices" : 11,
                    "material" : 2
                }
            ]
        },
        {
            "name" : "Texto.006",
            "primitives" : [
                {
                    "attributes" : {
                        "POSITION" : 12,
                        "NORMAL" : 13,
                        "TEXCOORD_0" : 14
                    },
                    "indices" : 15,
                    "material" : 3
                },
                {
                    "attributes" : {
                        "POSITION" : 16,
                        "NORMAL" : 17,
                        "TEXCOORD_0" : 18
                    },
                    "indices" : 19,
                    "material" : 4
                }
            ]
        },
        {
            "name" : "Texto.007",
            "primitives" : [
                {
                    "attributes" : {
                        "POSITION" : 20,
                        "NORMAL" : 21,
                        "TEXCOORD_0" : 22
                    },
                    "indices" : 23,
                    "material" : 3
                },
                {
                    "attributes" : {
                        "POSITION" : 24,
                        "NORMAL" : 25,
                        "TEXCOORD_0" : 26
                    },
                    "indices" : 27,
                    "material" : 4
                }
            ]
        }
    ],
    "accessors" : [
        {
            "bufferView" : 0,
            "componentType" : 5126,
            "count" : 1831,
            "max" : [
                1.0522719621658325,
                1.0436749458312988,
                0.9787219762802124
            ],
            "min" : [
                -1.0525710582733154,
                -1.0443650484085083,
                -0.9788079857826233
            ],
            "type" : "VEC3"
        },
        {
            "bufferView" : 1,
            "componentType" : 5126,
            "count" : 1831,
            "type" : "VEC3"
        },
        {
            "bufferView" : 2,
            "componentType" : 5126,
            "count" : 1831,
            "type" : "VEC2"
        },
        {
            "bufferView" : 3,
            "componentType" : 5123,
            "count" : 8892,
            "type" : "SCALAR"
        },
        {
            "bufferView" : 4,
            "componentType" : 5126,
            "count" : 1294,
            "max" : [
                1.0299439430236816,
                1.0230350494384766,
                1.056365966796875
            ],
            "min" : [
                -1.030243992805481,
                -1.023772954940796,
                -1.0564969778060913
            ],
            "type" : "VEC3"
        },
        {
            "bufferView" : 5,
            "componentType" : 5126,
            "count" : 1294,
            "type" : "VEC3"
        },
        {
            "bufferView" : 6,
            "componentType" : 5126,
            "count" : 1294,
            "type" : "VEC2"
        },
        {
            "bufferView" : 7,
            "componentType" : 5123,
            "count" : 6477,
            "type" : "SCALAR"
        },
        {
            "bufferView" : 8,
            "componentType" : 5126,
            "count" : 5239,
            "max" : [
                1.0359619855880737,
                1.0431619882583618,
                0.9885240197181702
            ],
            "min" : [
                -1.0362579822540283,
                -1.0437899827957153,
                -0.9886149764060974
            ],
            "type" : "VEC3"
        },
        {
            "bufferView" : 9,
            "componentType" : 5126,
            "count" : 5239,
            "type" : "VEC3"
        },
        {
            "bufferView" : 10,
            "componentType" : 5126,
            "count" : 5239,
            "type" : "VEC2"
        },
        {
            "bufferView" : 11,
            "componentType" : 5123,
            "count" : 16041,
            "type" : "SCALAR"
        },
        {
            "bufferView" : 12,
            "componentType" : 5126,
            "count" : 18364,
            "max" : [
                5.19558572769165,
                0.11343955993652344,
                0.5056084394454956
            ],
            "min" : [
                -4.403285980224609,
                -0.18389713764190674,
                -0.38698822259902954
            ],
            "type" : "VEC3"
        },
        {
            "bufferView" : 13,
            "componentType" : 5126,
            "count" : 18364,
            "type" : "VEC3"
        },
        {
            "bufferView" : 14,
            "componentType" : 5126,
            "count" : 18364,
            "type" : "VEC2"
        },
        {
            "bufferView" : 15,
            "componentType" : 5123,
            "count" : 21696,
            "type" : "SCALAR"
        },
        {
            "bufferView" : 16,
            "componentType" : 5126,
            "count" : 3173,
            "max" : [
                -1.331157922744751,
                0.09853875637054443,
                0.002804270712658763
            ],
            "min" : [
                -2.877101182937622,
                -0.03638195991516113,
                -0.3813796937465668
            ],
            "type" : "VEC3"
        },
        {
            "bufferView" : 17,
            "componentType" : 5126,
            "count" : 3173,
            "type" : "VEC3"
        },
        {
            "bufferView" : 18,
            "componentType" : 5126,
            "count" : 3173,
            "type" : "VEC2"
        },
        {
            "bufferView" : 19,
            "componentType" : 5123,
            "count" : 4221,
            "type" : "SCALAR"
        },
        {
            "bufferView" : 20,
            "componentType" : 5126,
            "count" : 18314,
            "max" : [
                4.849006175994873,
                0.1133013367652893,
                0.5056084394454956
            ],
            "min" : [
                -4.874091148376465,
                -0.15859198570251465,
                -0.38698825240135193
            ],
            "type" : "VEC3"
        },
        {
            "bufferView" : 21,
            "componentType" : 5126,
            "count" : 18314,
            "type" : "VEC3"
        },
        {
            "bufferView" : 22,
            "componentType" : 5126,
            "count" : 18314,
            "type" : "VEC2"
        },
        {
            "bufferView" : 23,
            "componentType" : 5123,
            "count" : 21696,
            "type" : "SCALAR"
        },
        {
            "bufferView" : 24,
            "componentType" : 5126,
            "count" : 3144,
            "max" : [
                -1.7539328336715698,
                0.08584564924240112,
                0.002804265823215246
            ],
            "min" : [
                -3.3687069416046143,
                -0.05779045820236206,
                -0.38137972354888916
            ],
            "type" : "VEC3"
        },
        {
            "bufferView" : 25,
            "componentType" : 5126,
            "count" : 3144,
            "type" : "VEC3"
        },
        {
            "bufferView" : 26,
            "componentType" : 5126,
            "count" : 3144,
            "type" : "VEC2"
        },
        {
            "bufferView" : 27,
            "componentType" : 5123,
            "count" : 4221,
            "type" : "SCALAR"
        }
    ],
    "bufferViews" : [
        {
            "buffer" : 0,
            "byteLength" : 21972,
            "byteOffset" : 0
        },
        {
            "buffer" : 0,
            "byteLength" : 21972,
            "byteOffset" : 21972
        },
        {
            "buffer" : 0,
            "byteLength" : 14648,
            "byteOffset" : 43944
        },
        {
            "buffer" : 0,
            "byteLength" : 17784,
            "byteOffset" : 58592
        },
        {
            "buffer" : 0,
            "byteLength" : 15528,
            "byteOffset" : 76376
        },
        {
            "buffer" : 0,
            "byteLength" : 15528,
            "byteOffset" : 91904
        },
        {
            "buffer" : 0,
            "byteLength" : 10352,
            "byteOffset" : 107432
        },
        {
            "buffer" : 0,
            "byteLength" : 12954,
            "byteOffset" : 117784
        },
        {
            "buffer" : 0,
            "byteLength" : 62868,
            "byteOffset" : 130740
        },
        {
            "buffer" : 0,
            "byteLength" : 62868,
            "byteOffset" : 193608
        },
        {
            "buffer" : 0,
            "byteLength" : 41912,
            "byteOffset" : 256476
        },
        {
            "buffer" : 0,
            "byteLength" : 32082,
            "byteOffset" : 298388
        },
        {
            "buffer" : 0,
            "byteLength" : 220368,
            "byteOffset" : 330472
        },
        {
            "buffer" : 0,
            "byteLength" : 220368,
            "byteOffset" : 550840
        },
        {
            "buffer" : 0,
            "byteLength" : 146912,
            "byteOffset" : 771208
        },
        {
            "buffer" : 0,
            "byteLength" : 43392,
            "byteOffset" : 918120
        },
        {
            "buffer" : 0,
            "byteLength" : 38076,
            "byteOffset" : 961512
        },
        {
            "buffer" : 0,
            "byteLength" : 38076,
            "byteOffset" : 999588
        },
        {
            "buffer" : 0,
            "byteLength" : 25384,
            "byteOffset" : 1037664
        },
        {
            "buffer" : 0,
            "byteLength" : 8442,
            "byteOffset" : 1063048
        },
        {
            "buffer" : 0,
            "byteLength" : 219768,
            "byteOffset" : 1071492
        },
        {
            "buffer" : 0,
            "byteLength" : 219768,
            "byteOffset" : 1291260
        },
        {
            "buffer" : 0,
            "byteLength" : 146512,
            "byteOffset" : 1511028
        },
        {
            "buffer" : 0,
            "byteLength" : 43392,
            "byteOffset" : 1657540
        },
        {
            "buffer" : 0,
            "byteLength" : 37728,
            "byteOffset" : 1700932
        },
        {
            "buffer" : 0,
            "byteLength" : 37728,
            "byteOffset" : 1738660
        },
        {
            "buffer" : 0,
            "byteLength" : 25152,
            "byteOffset" : 1776388
        },
        {
            "buffer" : 0,
            "byteLength" : 8442,
            "byteOffset" : 1801540
        }
    ],
    "buffers" : [
        {
            "byteLength" : 1809984,
            "uri" : "data:application/octet-stream;base64,"
        }
    ]
}
